<?xml version="1.0" encoding="UTF-8"?><svg id="Calque_1" xmlns="http://www.w3.org/2000/svg" width="366.44mm" height="103.92mm" viewBox="0 0 1038.73 294.59"><rect x="22.05" y="25.48" width="247.53" height="243.63" transform="translate(-29.66 257.59) rotate(-77.44)" style="fill:#ffb226;"/><rect x="23.16" y="23.52" width="243.63" height="247.53" style="fill:#00a6e8;"/><path d="M108.16,68.83v36.43c-33.83,0-61.15,27.89-60.22,61.94.9,32.81,28.65,58.55,61.47,58.55h0c32.58,0,58.99-26.41,58.99-58.99v-97.92h-60.24ZM114.15,187.27c-15.34,2.52-28.42-10.56-25.9-25.9,1.52-9.29,9.02-16.78,18.31-18.31,15.34-2.52,28.42,10.56,25.9,25.9-1.52,9.29-9.02,16.78-18.31,18.31Z" style="fill:#fff;"/><path d="M180.86,68.83h58.84v156.91h0c-32.48,0-58.84-26.37-58.84-58.84v-98.07h0Z" style="fill:#ffb226;"/><path d="M375.69,97.59v31.39c-28.66,0-51.89,23.23-51.89,51.89s23.23,51.89,51.89,51.89h51.89V97.55h-51.89v.04ZM377.59,199.88c-10.67,0-19.32-8.65-19.32-19.32s8.65-19.32,19.32-19.32,19.32,8.65,19.32,19.32-8.65,19.32-19.32,19.32Z" style="fill:#ffb226;"/><polygon points="531.34 128.67 581.37 128.67 598.11 158.39 614.39 128.67 664.87 128.67 598.11 232.75 531.34 128.67" style="fill:#ffb226;"/><path d="M489.67,185.68h51.66v-11.58c-3.3-25.47-25.09-45.13-51.43-45.13-28.66,0-51.89,23.23-51.89,51.89s23.23,51.89,51.89,51.89c10.89,0,20.95-3.34,29.3-9.07l-17.04-26.08-.42-1.52c-3.26,2.54-7.36,4.06-11.84,4.06-10.67,0-19.32-8.65-19.32-19.32s8.65-19.32,19.32-19.32c8.27,0,15.33,5.24,18.07,12.56h-18.29v11.61Z" style="fill:#ffb226;"/><path d="M987.08,185.68h51.66v-11.58c-3.3-25.47-25.09-45.13-51.43-45.13-28.66,0-51.89,23.23-51.89,51.89s23.23,51.89,51.89,51.89c10.89,0,20.95-3.34,29.3-9.07l-17.04-26.08-.42-1.52c-3.26,2.54-7.36,4.06-11.84,4.06-10.67,0-19.32-8.65-19.32-19.32s8.65-19.32,19.32-19.32c8.27,0,15.33,5.24,18.07,12.56h-18.29v11.61Z" style="fill:#fff;"/><rect x="741.47" y="149.17" width="51.16" height="83.62" style="fill:#fff;"/><circle cx="767.05" cy="116.87" r="19.32" style="fill:#fff;"/><path d="M805.53,97.59h50.71v135.2h0c-27.97,0-50.71-22.7-50.71-50.71v-84.49h0Z" style="fill:#fff;"/><path d="M676.03,97.59h50.71v135.2h0c-27.97,0-50.71-22.7-50.71-50.71v-84.49h0Z" style="fill:#fff;"/><path d="M870.86,97.59h50.71v135.2h0c-27.97,0-50.71-22.7-50.71-50.71v-84.49h0Z" style="fill:#fff;"/></svg>