<!-- SVG DEFINITIONS -->
<svg xmlns="http://www.w3.org/2000/svg" class="svg-library">
  <defs>
    <style type="text/css" >
    </style>

    <g id="ic-menu">
        <path d="M3 4H21V6H3V4ZM3 11H21V13H3V11ZM3 18H21V20H3V18Z"></path>
    </g>
    <g id="ic-sponsor">
        <path d="M3.16113 4.46875C5.58508 2.0448 9.44716 1.9355 12.0008 4.14085C14.5528 1.9355 18.4149 2.0448 20.8388 4.46875C23.2584 6.88836 23.3716 10.741 21.1785 13.2947L13.4142 21.0858C12.6686 21.8313 11.4809 21.8652 10.6952 21.1874L10.5858 21.0858L2.82141 13.2947C0.628282 10.741 0.741522 6.88836 3.16113 4.46875ZM4.57534 5.88296C2.86819 7.59011 2.81942 10.3276 4.42902 12.0937L4.57534 12.2469L12 19.6715L17.3026 14.3675L13.7677 10.8327L12.7071 11.8934C11.5355 13.0649 9.636 13.0649 8.46443 11.8934C7.29286 10.7218 7.29286 8.8223 8.46443 7.65073L10.5656 5.54823C8.85292 4.17713 6.37076 4.23993 4.7286 5.73663L4.57534 5.88296ZM13.0606 8.71139C13.4511 8.32086 14.0843 8.32086 14.4748 8.71139L18.7168 12.9533L19.4246 12.2469C21.1819 10.4896 21.1819 7.64032 19.4246 5.88296C17.7174 4.17581 14.9799 4.12704 13.2139 5.73663L13.0606 5.88296L9.87864 9.06494C9.51601 9.42757 9.49011 9.99942 9.80094 10.3919L9.87864 10.4792C10.2413 10.8418 10.8131 10.8677 11.2056 10.5569L11.2929 10.4792L13.0606 8.71139Z"></path>
    </g>
    <g id="ic-hall">
        <path d="M13 15V19H16V21H8V19H11V15H4C3.44772 15 3 14.5523 3 14V4C3 3.44772 3.44772 3 4 3H20C20.5523 3 21 3.44772 21 4V14C21 14.5523 20.5523 15 20 15H13ZM5 13H19V5H5V13ZM8 8H16V10H8V8Z"></path>
    </g>
    <g id="ic-parameters">
        <path d="M12 1L21.5 6.5V17.5L12 23L2.5 17.5V6.5L12 1ZM12 3.311L4.5 7.65311V16.3469L12 20.689L19.5 16.3469V7.65311L12 3.311ZM12 16C9.79086 16 8 14.2091 8 12C8 9.79086 9.79086 8 12 8C14.2091 8 16 9.79086 16 12C16 14.2091 14.2091 16 12 16ZM12 14C13.1046 14 14 13.1046 14 12C14 10.8954 13.1046 10 12 10C10.8954 10 10 10.8954 10 12C10 13.1046 10.8954 14 12 14Z"></path>
    </g>
    <g id="ic-filter">
        <path d="M10 18H14V16H10V18ZM3 6V8H21V6H3ZM6 13H18V11H6V13Z"></path>
    </g>
    <g id="ic-card">
        <path d="M3 6H21V18H3V6ZM2 4C1.44772 4 1 4.44772 1 5V19C1 19.5523 1.44772 20 2 20H22C22.5523 20 23 19.5523 23 19V5C23 4.44772 22.5523 4 22 4H2ZM13 9H19V11H13V9ZM18 13H13V15H18V13ZM6 13H7V16H9V11H6V13ZM9 8H7V10H9V8Z"></path>
    </g>
    <g id="ic-table">
        <path d="M14 10H10V14H14V10ZM16 10V14H19V10H16ZM14 19V16H10V19H14ZM16 19H19V16H16V19ZM14 5H10V8H14V5ZM16 5V8H19V5H16ZM8 10H5V14H8V10ZM8 19V16H5V19H8ZM8 5H5V8H8V5ZM4 3H20C20.5523 3 21 3.44772 21 4V20C21 20.5523 20.5523 21 20 21H4C3.44772 21 3 20.5523 3 20V4C3 3.44772 3.44772 3 4 3Z"></path>
    </g>   
  </defs>
</svg>